<svg width="143" height="30" viewBox="0 0 143 30" fill="none" xmlns="http://www.w3.org/2000/svg">
<path d="M8.17896 17.677C5.7311 16.4635 3.29156 15.2582 0.843706 14.0405C-0.282557 13.5418 -0.261777 11.9958 0.789678 11.468C6.74931 7.73596 12.7048 3.99976 18.6644 0.271872C19.3169 -0.135411 20.0151 -0.0813839 20.5055 0.409018C20.971 0.870329 21.0583 1.6184 20.6925 2.16699C18.6312 5.25486 16.5657 8.30533 14.5085 11.4057C16.9688 12.6234 19.4167 13.8411 21.8811 15.0546C23.0365 15.5034 23.1279 17.1118 22.0183 17.6812C16.067 21.4049 10.1198 25.1369 4.17678 28.869C3.27494 29.5547 1.8162 28.8898 1.9201 27.7219C3.52429 24.1769 6.1841 21.0641 8.18312 17.6853L8.17896 17.677ZM8.03766 23.0465C8.03766 23.0465 8.06259 23.0756 8.07506 23.0922C11.5411 20.9186 15.0072 18.7451 18.5314 16.5341C9.49224 11.68 9.25119 14.2608 14.5874 6.21488C14.5708 6.19826 14.5583 6.18579 14.5417 6.16917C11.138 8.30117 7.73427 10.4332 4.27652 12.5984C12.7422 17.2739 13.644 14.5517 8.03766 23.0423V23.0465Z" fill="url(#paint0_linear_255_33)"/>
<path d="M65.6348 26.7369H59.9828V13.4878H53.4828V26.7369H47.864V13.4878H45.3206V8.99932H47.864V7.61955C47.864 5.54573 48.5165 3.89166 49.8256 2.65734C51.1347 1.42303 52.8802 0.803789 55.0704 0.803789C56.1551 0.803789 57.2232 1.00328 58.2871 1.4064L57.2648 5.85743C56.604 5.71612 56.1343 5.64547 55.8517 5.64547C55.1452 5.64547 54.5717 5.8408 54.1395 6.22731C53.7031 6.61797 53.487 7.1624 53.487 7.86891V8.99932H65.639V26.7328L65.6348 26.7369ZM60.4399 6.03613C59.829 5.44599 59.5214 4.69376 59.5214 3.77529C59.5214 2.85683 59.8331 2.12123 60.4565 1.49783C61.0799 0.87444 61.8654 0.562744 62.8046 0.562744C63.7439 0.562744 64.4961 0.878596 65.1195 1.51446C65.7429 2.15032 66.0546 2.90254 66.0546 3.77529C66.0546 4.64804 65.7471 5.4169 65.1361 6.01951C64.5252 6.62212 63.748 6.92135 62.8046 6.92135C61.8612 6.92135 61.0508 6.62628 60.4358 6.04029L60.4399 6.03613Z" fill="white"/>
<path d="M83.5056 25.9596C81.8806 26.8324 80.2681 27.2687 78.6639 27.2687C76.428 27.2687 74.6908 26.6703 73.4523 25.4692C72.218 24.2682 71.5988 22.5143 71.5988 20.2036V13.4918H68.3821V9.00334H71.5988V3.771H77.2509V8.99918H82.4791V13.4876H77.2509V19.6343C77.2509 21.3548 78.0405 22.2151 79.6198 22.2151C80.5133 22.2151 81.3736 21.9782 82.2006 21.5086L83.5097 25.9596H83.5056Z" fill="white"/>
<path d="M101.667 26.7369H85.2761V23.0963L94.1782 13.4877H85.4881V8.99927H101.351V12.7105L92.4493 22.2484H101.671V26.7369H101.667Z" fill="white"/>
<path d="M122.297 19.3185H109.297C109.534 20.3782 109.991 21.2136 110.673 21.8287C111.355 22.4437 112.169 22.7471 113.113 22.7471C114.879 22.7471 116.138 22.0655 116.895 20.6982L121.911 21.7248C121.159 23.5617 120.02 24.9456 118.503 25.8766C116.982 26.8075 115.186 27.273 113.117 27.273C110.503 27.273 108.288 26.396 106.476 24.6422C104.664 22.8884 103.753 20.6317 103.753 17.8763C103.753 15.121 104.659 12.8934 106.476 11.1271C108.288 9.3608 110.515 8.47559 113.154 8.47559C115.793 8.47559 117.875 9.33587 119.621 11.0564C121.362 12.777 122.26 15.0503 122.306 17.8763V19.3268L122.297 19.3185ZM110.852 13.8077C110.145 14.3022 109.663 14.9838 109.401 15.8566H116.716C116.458 14.9381 116.009 14.244 115.373 13.7703C114.738 13.3006 113.994 13.0638 113.146 13.0638C112.298 13.0638 111.554 13.309 110.848 13.8077H110.852Z" fill="white"/>
<path d="M142.961 19.3185H129.961C130.198 20.3782 130.655 21.2136 131.336 21.8287C132.018 22.4437 132.833 22.7471 133.776 22.7471C135.542 22.7471 136.801 22.0655 137.558 20.6982L142.574 21.7248C141.822 23.5617 140.683 24.9456 139.166 25.8766C137.645 26.8075 135.85 27.273 133.78 27.273C131.166 27.273 128.951 26.396 127.139 24.6422C125.327 22.8884 124.417 20.6317 124.417 17.8763C124.417 15.121 125.323 12.8934 127.139 11.1271C128.951 9.3608 131.178 8.47559 133.818 8.47559C136.457 8.47559 138.539 9.33587 140.284 11.0564C142.026 12.777 142.923 15.0503 142.969 17.8763V19.3268L142.961 19.3185ZM131.515 13.8077C130.809 14.3022 130.327 14.9838 130.065 15.8566H137.379C137.121 14.9381 136.673 14.244 136.037 13.7703C135.401 13.3006 134.657 13.0638 133.809 13.0638C132.961 13.0638 132.217 13.309 131.511 13.8077H131.515Z" fill="white"/>
<defs>
<linearGradient id="paint0_linear_255_33" x1="0.563902" y1="14.838" x2="22.2619" y2="14.838" gradientUnits="userSpaceOnUse">
<stop stop-color="#FFB73F"/>
<stop offset="1" stop-color="#F91768"/>
</linearGradient>
</defs>
</svg>
